<svg viewBox="0 0 70 70" fill="none" xmlns="http://www.w3.org/2000/svg">
<path d="M0 62.6195C0 66.696 3.31835 70 7.38047 70H62.6195C66.696 70 70 66.6816 70 62.6195V7.38047C70 3.30405 66.6816 0 62.6195 0H7.38047C3.30405 0 0 3.31835 0 7.38047V62.6195ZM62.6195 66.4957H7.38047C5.24928 66.4957 3.50429 64.7507 3.50429 62.6195V53.3939L16.7777 40.1206L28.1201 51.463C28.8067 52.1496 29.908 52.1496 30.5946 51.463L51.0768 30.9808L66.4957 46.3997V62.6195C66.4957 64.7507 64.7507 66.4957 62.6195 66.4957ZM7.38047 3.50429H62.6195C64.7507 3.50429 66.4957 5.24928 66.4957 7.38047V41.4365L52.3069 27.262C51.6204 26.5754 50.519 26.5754 49.8324 27.262L29.3502 47.7442L18.0078 36.4017C17.3212 35.7152 16.2199 35.7152 15.5333 36.4017L3.50429 48.4307V7.38047C3.50429 5.24928 5.24928 3.50429 7.38047 3.50429Z" fill="white" fill-opacity="0.4"/>
<path d="M21.6981 28.0484C26.6185 28.0484 30.6091 24.0435 30.6091 19.1375C30.6091 14.2315 26.6041 10.2266 21.6981 10.2266C16.7921 10.2266 12.7872 14.2315 12.7872 19.1375C12.7872 24.0435 16.7778 28.0484 21.6981 28.0484ZM21.6981 13.7309C24.6875 13.7309 27.1048 16.1624 27.1048 19.1375C27.1048 22.1125 24.6732 24.5441 21.6981 24.5441C18.7231 24.5441 16.2915 22.1125 16.2915 19.1375C16.2915 16.1624 18.7088 13.7309 21.6981 13.7309Z" fill="white" fill-opacity="0.4"/>
</svg>
