<svg width="14" height="14" viewBox="0 0 14 14" fill="none" xmlns="http://www.w3.org/2000/svg">
<path d="M11.0841 6.9998C10.7615 6.9998 10.5007 7.26117 10.5007 7.58311V12.2499C10.5007 12.5713 10.2393 12.8332 9.91738 12.8332H1.75012C1.42806 12.8332 1.16678 12.5713 1.16678 12.2499V4.08304C1.16678 3.76164 1.42806 3.49973 1.75012 3.49973H6.41714C6.73973 3.49973 7.00048 3.23836 7.00048 2.91642C7.00048 2.59438 6.73973 2.33301 6.41714 2.33301H1.75012C0.785225 2.33301 0 3.11819 0 4.08304V12.2499C0 13.2148 0.785225 13.9999 1.75012 13.9999H9.91738C10.8823 13.9999 11.6675 13.2148 11.6675 12.2499V7.58311C11.6675 7.26053 11.4066 6.9998 11.0841 6.9998Z" fill="white"/>
<path d="M5.46871 6.46893C5.4279 6.50973 5.40045 6.56165 5.38881 6.61762L4.97638 8.6804C4.95715 8.776 4.98749 8.87459 5.05628 8.94402C5.11172 8.99945 5.18639 9.02915 5.26287 9.02915C5.28146 9.02915 5.30079 9.02744 5.32002 9.02338L7.38226 8.61097C7.43941 8.59922 7.49132 8.57188 7.53159 8.53097L12.1472 3.91555L10.085 1.85352L5.46871 6.46893Z" fill="white"/>
<path d="M13.5727 0.426587C13.004 -0.142196 12.0787 -0.142196 11.5105 0.426587L10.7031 1.23388L12.7654 3.29603L13.5727 2.48862C13.8481 2.2139 13.9998 1.84753 13.9998 1.45787C13.9998 1.06822 13.8481 0.701846 13.5727 0.426587Z" fill="white"/>
</svg>
