<svg width="14" height="14" viewBox="0 0 14 14" fill="none" xmlns="http://www.w3.org/2000/svg">
<path d="M13.6442 6.51369C13.9669 6.18574 14.0809 5.70449 13.9416 5.25767C13.8023 4.81084 13.4388 4.49133 12.9928 4.42376L9.59 3.90829C9.58376 3.90736 9.57843 3.90327 9.57567 3.89744L8.05398 0.683092C7.85457 0.261785 7.45069 0 6.99997 0C6.54925 0 6.14543 0.261785 5.94602 0.683092L4.42427 3.89744C4.4215 3.90327 4.41617 3.90729 4.40994 3.90829L1.00719 4.42376C0.561228 4.49133 0.197685 4.81084 0.0584096 5.25767C-0.0808661 5.70449 0.0330984 6.18574 0.355784 6.51369L2.81803 9.01575C2.82253 9.0203 2.82459 9.02687 2.82349 9.03329L2.24224 12.5663C2.16605 13.0293 2.34528 13.4885 2.70985 13.7646C3.07449 14.0409 3.54878 14.0765 3.94766 13.8579L6.99117 12.1899C6.99669 12.1868 7.00337 12.1869 7.0089 12.1899L10.0524 13.8579C10.2259 13.953 10.4136 14 10.6005 14C10.8431 14 11.0842 13.9207 11.2901 13.7646C11.6547 13.4885 11.8339 13.0293 11.7578 12.5662L11.1765 9.03329C11.1754 9.02687 11.1775 9.0203 11.182 9.01575L13.6442 6.51369ZM10.0367 9.23702L10.618 12.7699C10.6195 12.7793 10.62 12.7821 10.6104 12.7894C10.6008 12.7966 10.5984 12.7953 10.5904 12.7908L7.54679 11.1228C7.20438 10.9352 6.79549 10.9352 6.45295 11.1228L3.40944 12.7908C3.40141 12.7951 3.39897 12.7965 3.3894 12.7893C3.37983 12.7821 3.38028 12.7793 3.38182 12.7699L3.96308 9.23695C4.02847 8.83942 3.90211 8.43405 3.62504 8.15244L1.16291 5.65045C1.15643 5.64382 1.15443 5.64187 1.1581 5.63015C1.16176 5.61843 1.16446 5.61803 1.17345 5.61663L4.5762 5.10116C4.95914 5.04316 5.28999 4.79263 5.46119 4.43093L6.98294 1.21651C6.98699 1.20807 6.98815 1.20546 6.99997 1.20546C7.01179 1.20546 7.01301 1.20807 7.01699 1.21651L8.53875 4.43093C8.71001 4.79263 9.04079 5.04323 9.42374 5.10116L12.8265 5.61663C12.8355 5.61803 12.8382 5.61843 12.8418 5.63015C12.8455 5.64187 12.8435 5.64388 12.837 5.65045L10.3748 8.15251C10.0978 8.43405 9.9714 8.83948 10.0367 9.23702Z" fill="white"/>
</svg>
