<svg width="14" height="14" viewBox="0 0 14 14" fill="none" xmlns="http://www.w3.org/2000/svg">
<path fill-rule="evenodd" clip-rule="evenodd" d="M5.10346 1.45911C5.23474 1.33977 5.41279 1.27273 5.59844 1.27273H8.39844C8.58409 1.27273 8.76214 1.33977 8.89341 1.45911C9.02469 1.57846 9.09844 1.74032 9.09844 1.90909V2.54541H4.89844V1.90909C4.89844 1.74032 4.97219 1.57846 5.10346 1.45911ZM3.49844 2.54541V1.90909C3.49844 1.40277 3.71969 0.917184 4.11351 0.55916C4.50734 0.201136 5.04148 0 5.59844 0H8.39844C8.95539 0 9.48954 0.201136 9.88336 0.55916C10.2772 0.917184 10.4984 1.40277 10.4984 1.90909V2.54541H13.3C13.6866 2.54541 14 2.83032 14 3.18177C14 3.53323 13.6866 3.81814 13.3 3.81814H12.5984V12.0909C12.5984 12.5972 12.3772 13.0828 11.9834 13.4408C11.5895 13.7989 11.0554 14 10.4984 14H3.49844C2.94148 14 2.40734 13.7989 2.01351 13.4408C1.61969 13.0828 1.39844 12.5972 1.39844 12.0909V3.81814H0.7C0.313401 3.81814 0 3.53323 0 3.18177C0 2.83032 0.313401 2.54541 0.7 2.54541H3.49844ZM2.79844 12.0909V3.81818H11.1984V12.0909C11.1984 12.2597 11.1247 12.4215 10.9934 12.5409C10.8621 12.6602 10.6841 12.7273 10.4984 12.7273H3.49844C3.31279 12.7273 3.13474 12.6602 3.00346 12.5409C2.87219 12.4215 2.79844 12.2597 2.79844 12.0909Z" fill="white"/>
</svg>
