<svg width="19" height="19" viewBox="0 0 19 19" fill="none" xmlns="http://www.w3.org/2000/svg">
<path fill-rule="evenodd" clip-rule="evenodd" d="M16 1C16 0.447715 15.5523 0 15 0C14.4477 0 14 0.447715 14 1V5.58579L12.7071 4.29289C12.3166 3.90237 11.6834 3.90237 11.2929 4.29289C10.9024 4.68342 10.9024 5.31658 11.2929 5.70711L14.2929 8.70711L15 9.41421L15.7071 8.70711L18.7071 5.70711C19.0976 5.31658 19.0976 4.68342 18.7071 4.29289C18.3166 3.90237 17.6834 3.90237 17.2929 4.29289L16 5.58579V1ZM3 5C2.44772 5 2 5.44772 2 6V11.5858L3.58579 10C4.36683 9.21895 5.63317 9.21895 6.41421 10L9 12.5858L10.5858 11C11.3668 10.219 12.6332 10.219 13.4142 11L14 11.5858V11C14 10.4477 14.4477 10 15 10C15.5523 10 16 10.4477 16 11V16C16 17.6569 14.6569 19 13 19H3C1.34315 19 0 17.6569 0 16V6C0 4.34315 1.34315 3 3 3H8C8.55228 3 9 3.44772 9 4C9 4.55228 8.55228 5 8 5H3ZM2 16V14.4142L5 11.4142L8.29289 14.7071L10.5858 17H3C2.44772 17 2 16.5523 2 16ZM14 16C14 16.4288 13.7301 16.7946 13.3509 16.9367L10.4142 14L12 12.4142L14 14.4142V16Z" fill="white"/>
</svg>
