<svg width="13" height="14" viewBox="0 0 13 14" fill="none" xmlns="http://www.w3.org/2000/svg">
<path d="M11.375 14H1.625C0.729444 14 0 13.4114 0 12.6875V6.5625C0 5.83858 0.729444 5.25 1.625 5.25H11.375C12.2706 5.25 13 5.83858 13 6.5625V12.6875C13 13.4114 12.2706 14 11.375 14ZM1.625 6.125C1.32672 6.125 1.08333 6.321 1.08333 6.5625V12.6875C1.08333 12.929 1.32672 13.125 1.625 13.125H11.375C11.6733 13.125 11.9167 12.929 11.9167 12.6875V6.5625C11.9167 6.321 11.6733 6.125 11.375 6.125H1.625Z" fill="black" fill-opacity="0.3"/>
<path d="M10.2916 6.125C9.99263 6.125 9.74996 5.929 9.74996 5.6875V3.5C9.74996 2.05275 8.29179 0.875 6.49996 0.875C4.70813 0.875 3.24996 2.05275 3.24996 3.5V5.6875C3.24996 5.929 3.00729 6.125 2.70829 6.125C2.40929 6.125 2.16663 5.929 2.16663 5.6875V3.5C2.16663 1.56975 4.11013 0 6.49996 0C8.88979 0 10.8333 1.56975 10.8333 3.5V5.6875C10.8333 5.929 10.5906 6.125 10.2916 6.125Z" fill="black" fill-opacity="0.3"/>
<path d="M6.49999 9.91671C5.70338 9.91671 5.05554 9.39346 5.05554 8.75004C5.05554 8.10662 5.70338 7.58337 6.49999 7.58337C7.2966 7.58337 7.94443 8.10662 7.94443 8.75004C7.94443 9.39346 7.2966 9.91671 6.49999 9.91671ZM6.49999 8.45837C6.30138 8.45837 6.13888 8.58904 6.13888 8.75004C6.13888 8.91104 6.30138 9.04171 6.49999 9.04171C6.6986 9.04171 6.8611 8.91104 6.8611 8.75004C6.8611 8.58904 6.6986 8.45837 6.49999 8.45837Z" fill="black" fill-opacity="0.3"/>
<path d="M6.50004 11.6667C6.20104 11.6667 5.95837 11.4707 5.95837 11.2292V9.625C5.95837 9.3835 6.20104 9.1875 6.50004 9.1875C6.79904 9.1875 7.04171 9.3835 7.04171 9.625V11.2292C7.04171 11.4707 6.79904 11.6667 6.50004 11.6667Z" fill="black" fill-opacity="0.3"/>
</svg>
